<svg width="400" height="400" viewBox="0 0 400 400" fill="none" xmlns="http://www.w3.org/2000/svg">
<path d="M317.95 60.23L334.88 64.97L338.1 82.06L328.95 87.83L322.86 99.01L300.34 94.43L294.92 78.86L305.08 76.38L304.26 62.37L317.95 60.23Z" stroke="#191919" stroke-width="12" stroke-miterlimit="10" stroke-linecap="round" stroke-linejoin="round"/>
<path d="M241.56 352.38H148.5C123.22 352.38 102.73 331.89 102.73 306.61V113.5H287.33V306.61C287.33 331.89 266.84 352.38 241.56 352.38Z" stroke="#191919" stroke-width="12" stroke-miterlimit="10" stroke-linecap="round" stroke-linejoin="round"/>
<path d="M150.59 171.22V295.17" stroke="#6A0BFF" stroke-width="12" stroke-miterlimit="10" stroke-linecap="round" stroke-linejoin="round"/>
<path d="M195.03 171.22V295.17" stroke="#6A0BFF" stroke-width="12" stroke-miterlimit="10" stroke-linecap="round" stroke-linejoin="round"/>
<path d="M239.47 171.22V295.17" stroke="#6A0BFF" stroke-width="12" stroke-miterlimit="10" stroke-linecap="round" stroke-linejoin="round"/>
<path d="M89.78 117.32L288.05 42.3799" stroke="#6A0BFF" stroke-width="12" stroke-miterlimit="10" stroke-linecap="round" stroke-linejoin="round"/>
<path d="M157.02 91.8999L153.11 81.5399C149.01 70.6899 154.48 58.5699 165.33 54.4699L189.83 45.2099C200.68 41.1099 212.8 46.5799 216.9 57.4299L220.81 67.7899" stroke="#6A0BFF" stroke-width="12" stroke-miterlimit="10" stroke-linecap="round" stroke-linejoin="round"/>
</svg>
